<svg width="24" height="32" viewBox="0 0 24 32" fill="none" xmlns="http://www.w3.org/2000/svg">
<path fill-rule="evenodd" clip-rule="evenodd" d="M5.99999 25.7239C7.82811 27.9843 9.83509 30.0833 12 32C14.1649 30.0833 16.1718 27.9843 18 25.7239C19.6875 23.6353 21.5699 20.9165 22.7689 18.0102C23.5176 16.1924 23.9999 14.3018 23.9999 12.4476C24.0098 9.14546 22.7454 5.97874 20.4893 3.65057C17.0575 0.0880155 11.8939 -0.97971 7.40747 0.947405C2.92105 2.87452 -0.00246554 7.41105 1.56024e-06 12.4476C1.56024e-06 17.2706 3.25657 22.328 5.99999 25.7239Z" fill="#3434FF"/>
<ellipse cx="12.0001" cy="11.8858" rx="8.30769" ry="8.22857" fill="white"/>
<g clip-path="url(#clip0_1_6859)">
<path d="M17.4995 9.50755C17.4995 9.50755 16.7835 7.31445 12.1107 7.31445C7.43785 7.31445 6.46191 9.8138 6.46191 9.8138C6.46191 9.8138 7.88339 8.5987 9.83526 8.22824L11.4265 14.9212L8.22815 10.3868C9.00253 9.9274 9.4905 8.98891 9.69205 8.58882C8.89645 8.75676 7.58636 9.28528 6.54678 10.1892C6.40887 10.3077 6.60512 10.5053 6.68468 10.535C7.06657 10.6733 7.41133 10.6733 7.72427 10.5942L11.7765 16.3437C11.8296 16.4178 11.9144 16.4573 12.0046 16.4573C12.0948 16.4573 12.1849 16.4129 12.2327 16.3437L16.46 10.3473C17.8496 10.1694 17.4995 9.50755 17.4995 9.50755ZM15.7917 10.372L12.5827 14.9212L13.9246 9.29022C14.2217 9.54213 14.3808 9.73477 14.3808 9.73477C14.3808 9.73477 14.7574 10.3028 15.7917 10.372ZM10.6256 8.12946C11.8508 8.0603 12.8161 8.50485 13.4632 8.93952L12.0046 15.0644L10.3604 8.15415C10.4505 8.14427 10.5354 8.1344 10.6256 8.12946Z" fill="#3434FF"/>
</g>
<defs>
<clipPath id="clip0_1_6859">
<rect width="12" height="10.0571" fill="white" transform="translate(6.46191 7.31445)"/>
</clipPath>
</defs>
</svg>
